<svg xmlns="http://www.w3.org/2000/svg" xmlns:xlink="http://www.w3.org/1999/xlink" width="80" zoomAndPan="magnify" viewBox="0 0 60 60" height="80" preserveAspectRatio="xMidYMid meet" version="1.0"><defs><g/></defs><path stroke-linecap="butt" transform="matrix(0.75, 0, 0, 0.75, 0, 0.000002)" fill="none" stroke-linejoin="miter" d="M 0 -0.00000266667 L 80.000003 -0.00000266667 L 80.000003 80.000001 L 0 80.000001 Z M 0 -0.00000266667 " stroke="#014d98" stroke-width="8" stroke-opacity="1" stroke-miterlimit="4"/><g fill="#014d98" fill-opacity="1"><g transform="translate(6.036599, 44.649368)"><g><path d="M 12.359375 0.40625 C 10.421875 0.40625 8.695312 0.164062 7.1875 -0.3125 C 5.6875 -0.789062 4.429688 -1.414062 3.421875 -2.1875 C 2.421875 -2.96875 1.65625 -3.820312 1.125 -4.75 L 4.15625 -8.453125 L 4.640625 -8.453125 C 5.472656 -7.203125 6.535156 -6.207031 7.828125 -5.46875 C 9.117188 -4.738281 10.628906 -4.375 12.359375 -4.375 C 13.835938 -4.375 14.953125 -4.679688 15.703125 -5.296875 C 16.453125 -5.921875 16.828125 -6.78125 16.828125 -7.875 C 16.828125 -8.539062 16.703125 -9.09375 16.453125 -9.53125 C 16.210938 -9.976562 15.8125 -10.359375 15.25 -10.671875 C 14.695312 -10.992188 13.941406 -11.269531 12.984375 -11.5 L 9.40625 -12.328125 C 6.894531 -12.898438 5.023438 -13.847656 3.796875 -15.171875 C 2.578125 -16.503906 1.96875 -18.226562 1.96875 -20.34375 C 1.96875 -21.925781 2.359375 -23.3125 3.140625 -24.5 C 3.929688 -25.695312 5.078125 -26.625 6.578125 -27.28125 C 8.085938 -27.945312 9.894531 -28.28125 12 -28.28125 C 14.144531 -28.28125 15.984375 -28 17.515625 -27.4375 C 19.046875 -26.875 20.34375 -26.003906 21.40625 -24.828125 L 18.671875 -21.09375 L 18.203125 -21.09375 C 17.410156 -21.914062 16.503906 -22.535156 15.484375 -22.953125 C 14.472656 -23.367188 13.3125 -23.578125 12 -23.578125 C 10.488281 -23.578125 9.335938 -23.304688 8.546875 -22.765625 C 7.753906 -22.234375 7.359375 -21.5 7.359375 -20.5625 C 7.359375 -19.6875 7.632812 -18.988281 8.1875 -18.46875 C 8.738281 -17.945312 9.695312 -17.539062 11.0625 -17.25 L 14.71875 -16.484375 C 17.425781 -15.910156 19.390625 -14.9375 20.609375 -13.5625 C 21.835938 -12.195312 22.453125 -10.414062 22.453125 -8.21875 C 22.453125 -6.476562 22.078125 -4.960938 21.328125 -3.671875 C 20.578125 -2.378906 19.441406 -1.375 17.921875 -0.65625 C 16.410156 0.0507812 14.554688 0.40625 12.359375 0.40625 Z M 12.359375 0.40625 "/></g></g></g><g fill="#014d98" fill-opacity="1"><g transform="translate(29.98907, 44.649368)"><g><path d="M 9.140625 -12.25 L 9.140625 -4.609375 L 22.453125 -4.609375 L 22.453125 0 L 3.625 0 L 3.625 -27.890625 L 22.140625 -27.890625 L 22.140625 -23.265625 L 9.140625 -23.265625 L 9.140625 -16.75 L 20.5 -16.75 L 20.5 -12.25 Z M 9.140625 -12.25 "/></g></g></g></svg>